{"glyphs":{":":{"x_min":0,"x_max":257,"ha":257,"o":"m 220 339 l 68 339 l 93 490 l 245 490 z m 163 0 l 11 0 l 37 151 l 188 151 z"},"$":{"x_min":0,"x_max":586,"ha":586,"o":"m 572 508 l 457 455 q 431 545 324 545 q 238 545 238 473 q 238 447 256 432 q 274 417 367 396 q 432 380 466 362 q 500 343 524 303 q 548 262 548 213 q 548 127 487 68 q 426 8 303 8 l 286 -97 l 206 -97 l 224 14 q 170 16 110 59 q 50 102 25 196 l 155 228 q 171 124 300 124 q 390 124 390 197 q 390 228 368 241 q 347 255 278 272 q 223 286 197 295 q 172 305 146 328 q 119 352 103 387 q 87 422 87 459 q 87 533 147 594 q 208 654 324 654 l 337 737 l 417 737 l 403 647 q 519 625 572 508 z"},"?":{"x_min":0,"x_max":503,"ha":503,"o":"m 300 202 l 175 202 q 185 291 201 321 q 217 350 281 397 q 332 434 347 454 q 363 475 363 503 q 363 538 342 557 q 320 577 287 577 q 212 577 184 470 l 56 503 q 79 588 143 643 q 208 699 297 699 q 390 699 453 645 q 517 591 517 504 q 517 462 501 428 q 485 395 462 372 q 438 350 391 321 q 333 285 319 265 q 304 246 300 202 z m 309 149 l 284 0 l 136 0 l 161 149 z"},"<":{"x_min":0,"x_max":586,"ha":586,"o":"m 524 616 l 524 479 l 237 334 l 524 189 l 524 53 l 91 277 l 91 392 z"},"'":{"x_min":0,"x_max":190,"ha":190,"o":"m 160 393 l 80 393 l 108 667 l 223 667 z"},"=":{"x_min":0,"x_max":586,"ha":586,"o":"m 555 477 l 555 370 l 61 370 l 61 477 z m 555 293 l 555 187 l 61 187 l 61 293 z"},"a":{"x_min":0,"x_max":541,"ha":541,"o":"m 315 0 q 314 22 314 31 q 314 41 317 62 q 319 76 319 85 q 273 -13 160 -13 q 94 -13 52 26 q 11 64 11 123 q 11 204 83 253 q 156 302 347 311 q 356 334 356 355 q 356 382 338 398 q 321 414 291 414 q 216 414 191 339 l 61 354 q 113 505 302 505 q 397 505 447 466 q 496 426 496 362 q 496 338 482 254 l 461 127 q 451 65 451 33 q 451 17 453 0 z m 337 241 q 161 234 161 139 q 161 113 177 96 q 192 79 218 79 q 260 79 292 119 q 325 160 337 241 z"},"L":{"x_min":0,"x_max":489,"ha":489,"o":"m 290 667 l 200 126 l 462 126 l 441 0 l 25 0 l 137 667 z"},"3":{"x_min":0,"x_max":586,"ha":586,"o":"m 10 186 l 140 211 q 170 104 268 104 q 319 104 348 131 q 377 158 377 198 q 377 230 359 253 q 341 276 317 282 q 294 288 247 288 l 197 288 l 213 401 l 284 401 q 405 401 405 486 q 405 522 378 544 q 352 565 312 565 q 234 565 200 485 l 68 522 q 139 683 318 683 q 424 683 491 633 q 558 583 558 500 q 558 442 523 397 q 488 353 426 341 q 479 322 507 280 q 534 237 534 189 q 534 105 465 45 q 396 -16 278 -16 q 169 -16 98 41 q 27 97 10 186 z"},";":{"x_min":0,"x_max":257,"ha":257,"o":"m 220 339 l 68 339 l 93 490 l 246 490 z m 189 151 l 166 17 l 46 -153 l -12 -153 l 83 0 l 11 0 l 37 151 z"},"J":{"x_min":0,"x_max":390,"ha":390,"o":"m 400 667 l 323 204 q 309 121 288 83 q 268 44 215 17 q 162 -11 76 -11 q 25 -11 -34 0 l -15 118 q 19 112 50 112 q 109 112 132 128 q 156 145 163 168 q 170 192 189 310 l 250 667 z"},"V":{"x_min":0,"x_max":549,"ha":549,"o":"m 622 667 l 316 0 l 155 0 l 57 667 l 210 667 l 274 168 l 489 667 z"},"\"":{"x_min":0,"x_max":364,"ha":364,"o":"m 160 393 l 80 393 l 108 667 l 223 667 z m 333 393 l 253 393 l 282 667 l 396 667 z"},"7":{"x_min":0,"x_max":586,"ha":586,"o":"m 589 667 l 578 560 q 479 473 395 322 q 311 170 296 0 l 120 0 q 134 113 197 240 q 259 366 338 447 q 417 527 440 540 l 96 540 l 119 667 z"},"S":{"x_min":0,"x_max":574,"ha":574,"o":"m 555 503 l 418 471 q 395 554 305 554 q 263 554 238 534 q 213 514 213 486 q 213 458 233 443 q 253 428 310 414 q 392 394 438 371 q 485 348 510 307 q 536 267 536 208 q 536 114 466 51 q 397 -13 269 -13 q 160 -13 87 38 q 15 88 -3 190 l 140 209 q 162 110 275 110 q 326 110 354 132 q 381 154 381 188 q 381 220 360 235 q 339 249 264 270 q 195 288 154 310 q 113 332 89 372 q 65 412 65 464 q 65 548 129 613 q 193 677 305 677 q 499 677 555 503 z"},"}":{"x_min":0,"x_max":293,"ha":293,"o":"m 159 247 q 115 273 115 331 q 115 341 119 364 l 149 542 q 154 572 154 582 q 154 597 146 602 q 139 607 119 607 l 101 606 l 110 665 q 125 665 156 666 q 172 667 177 667 q 229 667 251 646 q 273 624 273 576 q 273 560 269 533 l 238 349 q 235 331 235 321 q 235 277 280 269 l 271 215 q 214 207 204 144 l 173 -40 q 162 -108 131 -141 q 101 -173 36 -173 l 16 -173 q -8 -171 -30 -171 l -20 -113 l -5 -113 q 24 -113 33 -104 q 42 -94 50 -49 l 80 129 q 87 175 104 200 q 120 226 159 247 z"},"Z":{"x_min":0,"x_max":573,"ha":573,"o":"m -3 107 l 386 543 q 292 540 227 540 l 82 540 l 103 667 l 597 667 l 582 564 l 192 124 q 219 124 278 125 q 311 126 395 126 l 532 126 l 511 0 l -21 0 z"},"x":{"x_min":0,"x_max":474,"ha":474,"o":"m 506 497 l 318 260 l 436 0 l 281 0 l 208 175 l 82 0 l -45 0 l 162 266 l 53 497 l 212 497 l 274 352 l 377 497 z"},")":{"x_min":0,"x_max":293,"ha":293,"o":"m 86 667 l 167 667 q 280 462 280 299 q 280 60 46 -173 l -49 -173 q 62 -55 110 89 q 158 234 158 372 q 158 520 86 667 z"},"&":{"x_min":0,"x_max":715,"ha":715,"o":"m 712 362 q 660 238 560 147 q 585 117 623 117 q 641 117 672 122 l 658 4 q 611 -2 583 -2 q 507 -2 461 61 q 367 -11 252 -11 q 146 -11 82 45 q 18 101 18 182 q 18 247 62 302 q 107 358 223 388 q 179 454 179 510 q 179 582 233 630 q 288 679 383 679 q 478 679 528 635 q 578 592 578 525 q 578 398 411 347 l 491 238 q 549 292 578 381 z m 358 427 q 457 456 457 519 q 457 549 435 565 q 414 582 386 582 q 355 582 334 563 q 313 545 313 518 q 313 483 358 427 z m 281 301 q 173 269 173 188 q 173 146 201 125 q 229 104 266 104 q 332 104 392 147 z"},"_":{"x_min":0,"x_max":500,"ha":500,"o":"m 14 -46 l 514 -46 l 514 -163 l 14 -163 z"},"v":{"x_min":0,"x_max":455,"ha":455,"o":"m 493 497 l 250 0 l 130 0 l 32 497 l 184 497 l 236 188 l 379 497 z"},"O":{"x_min":0,"x_max":644,"ha":644,"o":"m 309 -10 q 191 -10 119 69 q 47 149 47 280 q 47 438 132 558 q 218 677 359 677 q 481 677 552 597 q 624 516 624 383 q 624 223 539 106 q 454 -10 309 -10 z m 312 113 q 397 113 435 212 q 472 311 472 405 q 472 554 360 554 q 280 554 240 461 q 200 369 200 258 q 200 113 312 113 z"},"(":{"x_min":0,"x_max":293,"ha":293,"o":"m 208 -173 l 125 -173 q 14 30 14 194 q 14 433 248 667 l 342 667 q 230 547 183 403 q 136 258 136 121 q 136 -26 208 -173 z"},"C":{"x_min":0,"x_max":623,"ha":623,"o":"m 622 416 l 470 409 q 471 424 471 432 q 471 482 445 517 q 420 552 369 552 q 285 552 248 451 q 212 351 212 254 q 212 182 243 149 q 273 116 322 116 q 420 116 457 239 l 594 215 q 518 -12 310 -12 q 182 -12 114 73 q 46 157 46 277 q 46 437 134 558 q 223 679 369 679 q 475 679 546 615 q 618 551 622 416 z"},"W":{"x_min":0,"x_max":886,"ha":886,"o":"m 946 667 l 673 0 l 529 0 l 470 465 l 291 0 l 149 0 l 70 667 l 223 667 l 265 205 l 441 667 l 580 667 l 636 205 l 811 667 z"},"A":{"x_min":0,"x_max":615,"ha":615,"o":"m 577 0 l 418 0 l 396 146 l 174 146 l 110 0 l -35 0 l 282 667 l 465 667 z m 224 263 l 381 263 l 341 529 z"},"f":{"x_min":0,"x_max":318,"ha":318,"o":"m 331 384 l 235 384 l 171 0 l 27 0 l 92 384 l 33 384 l 47 497 l 110 497 q 125 608 177 652 q 229 697 324 697 q 354 697 385 692 l 377 577 q 354 581 333 581 q 300 581 279 565 q 258 550 253 497 l 350 497 z"},"Q":{"x_min":0,"x_max":647,"ha":647,"o":"m 557 -126 q 509 -131 483 -131 q 416 -131 382 -99 q 348 -67 348 -20 q 348 -15 349 -6 q 322 -11 298 -11 q 190 -11 119 69 q 47 148 47 279 q 47 434 131 555 q 215 677 363 677 q 489 677 560 594 q 630 510 630 385 q 630 259 577 160 q 523 62 438 25 q 440 -18 510 -18 q 535 -18 563 -14 z m 314 113 q 400 113 438 208 q 476 304 476 400 q 476 553 364 553 q 274 553 237 454 q 199 354 199 257 q 199 113 314 113 z"},"w":{"x_min":0,"x_max":720,"ha":720,"o":"m 753 497 l 528 0 l 400 0 l 364 321 l 239 0 l 114 0 l 41 497 l 189 497 l 227 187 l 345 497 l 478 497 l 507 187 l 643 497 z"},"-":{"x_min":0,"x_max":257,"ha":257,"o":"m 235 193 l 4 193 l 22 301 l 253 301 z"},"E":{"x_min":0,"x_max":571,"ha":571,"o":"m 606 667 l 585 540 l 272 540 l 249 403 l 511 403 l 491 283 l 229 283 l 203 126 l 521 126 l 500 0 l 25 0 l 137 667 z"},"s":{"x_min":0,"x_max":465,"ha":465,"o":"m 440 366 l 330 344 q 316 414 232 414 q 204 414 186 399 q 168 384 168 366 q 168 345 184 335 q 200 326 250 318 q 338 304 381 270 q 424 236 424 166 q 424 92 367 41 q 309 -11 208 -11 q 123 -11 59 25 q -4 62 -16 139 l 106 153 q 116 83 214 83 q 254 83 274 98 q 294 113 294 134 q 294 155 279 165 q 263 175 212 184 q 105 202 71 241 q 36 281 36 335 q 36 409 88 458 q 140 507 233 507 q 407 507 440 366 z"},">":{"x_min":0,"x_max":586,"ha":586,"o":"m 91 53 l 91 190 l 379 334 l 91 480 l 91 616 l 524 392 l 524 276 z"},"l":{"x_min":0,"x_max":263,"ha":263,"o":"m 273 667 l 162 0 l 19 0 l 130 667 z"},"8":{"x_min":0,"x_max":586,"ha":586,"o":"m 183 330 q 95 383 95 471 q 95 549 167 611 q 238 673 357 673 q 457 673 517 630 q 578 587 578 519 q 578 414 438 360 q 549 308 549 207 q 549 117 474 57 q 398 -3 279 -3 q 167 -3 95 40 q 24 83 24 161 q 24 220 68 267 q 111 315 183 330 z m 373 398 q 454 433 454 496 q 454 534 423 560 q 393 585 339 585 q 290 585 260 564 q 231 543 231 510 q 231 442 373 398 z m 254 288 q 208 279 179 249 q 151 219 151 185 q 151 143 188 117 q 226 92 287 92 q 340 92 374 113 q 408 135 408 174 q 408 208 372 233 q 336 258 254 288 z"},"\\":{"x_min":0,"x_max":442,"ha":442,"o":"m 322 -173 l 98 667 l 182 667 l 408 -173 z"},"e":{"x_min":0,"x_max":527,"ha":527,"o":"m 495 223 l 174 223 q 171 199 171 187 q 171 138 196 114 q 220 90 255 90 q 325 90 354 169 l 477 148 q 452 77 392 32 q 333 -13 247 -13 q 149 -13 88 51 q 27 114 27 216 q 27 330 99 418 q 171 507 290 507 q 389 507 445 443 q 500 378 500 283 q 500 262 495 223 z m 185 305 l 364 305 q 366 322 366 335 q 366 374 344 395 q 322 416 291 416 q 208 416 185 305 z"},"b":{"x_min":0,"x_max":542,"ha":542,"o":"m 273 667 l 233 429 q 281 508 360 508 q 429 508 470 454 q 512 401 512 302 q 512 177 449 83 q 387 -11 283 -11 q 181 -11 137 79 q 111 37 98 0 l 19 0 q 27 30 36 91 q 42 140 62 256 l 130 667 z m 261 88 q 316 88 342 168 q 368 249 368 326 q 368 363 351 386 q 333 408 304 408 q 245 408 220 326 q 195 244 195 170 q 195 133 212 111 q 229 88 261 88 z"},"%":{"x_min":0,"x_max":845,"ha":845,"o":"m 221 298 q 154 298 112 346 q 69 394 69 465 q 69 552 120 612 q 171 672 245 672 q 308 672 353 626 q 397 580 397 499 q 397 424 347 361 q 296 298 221 298 z m 223 382 q 243 382 255 397 q 267 412 274 459 q 281 505 281 526 q 281 582 243 582 q 212 582 198 540 q 183 498 183 440 q 183 382 223 382 z m 230 0 l 139 0 l 644 668 l 736 668 z m 629 -4 q 556 -4 517 46 q 477 97 477 165 q 477 245 525 307 q 573 370 650 370 q 712 370 759 326 q 805 281 805 188 q 805 120 759 58 q 712 -4 629 -4 z m 632 82 q 689 82 689 225 q 689 281 650 281 q 614 281 603 225 q 592 169 592 138 q 592 82 632 82 z"},"m":{"x_min":0,"x_max":814,"ha":814,"o":"m 572 0 l 618 277 q 625 322 625 334 q 625 392 573 392 q 541 392 515 365 q 490 339 474 245 l 433 0 l 294 0 l 344 295 q 350 331 350 341 q 350 395 299 395 q 272 395 250 375 q 229 355 220 326 q 211 297 199 220 l 162 0 l 19 0 l 102 497 l 231 497 l 217 411 q 255 473 289 490 q 323 508 361 508 q 448 508 483 415 q 539 505 628 505 q 693 505 731 466 q 770 427 770 364 q 770 340 759 275 l 712 0 z"},"#":{"x_min":0,"x_max":586,"ha":586,"o":"m 534 303 l 512 206 l 417 206 l 371 0 l 272 0 l 319 206 l 250 206 l 203 0 l 105 0 l 152 206 l 46 206 l 68 303 l 174 303 l 192 378 l 87 378 l 109 475 l 214 475 l 258 667 l 355 667 l 311 475 l 381 475 l 425 667 l 523 667 l 479 475 l 572 475 l 550 378 l 457 378 l 440 303 z m 358 378 l 282 378 l 265 303 l 341 303 z"},",":{"x_min":0,"x_max":257,"ha":257,"o":"m 189 151 l 166 17 l 46 -153 l -12 -153 l 83 0 l 11 0 l 37 151 z"},"n":{"x_min":0,"x_max":545,"ha":545,"o":"m 236 497 l 221 402 q 275 505 370 505 q 428 505 465 468 q 502 430 502 372 q 502 348 491 279 l 444 0 l 301 0 l 349 290 q 356 333 356 345 q 356 397 305 397 q 278 397 256 379 q 233 361 223 333 q 213 305 203 246 l 162 0 l 19 0 l 102 497 z"},"h":{"x_min":0,"x_max":546,"ha":546,"o":"m 445 0 l 302 0 l 352 301 q 356 328 356 344 q 356 365 342 380 q 327 394 304 394 q 275 394 253 376 q 231 359 222 331 q 213 304 202 237 l 162 0 l 19 0 l 130 667 l 273 667 l 233 424 q 284 505 372 505 q 429 505 467 471 q 504 436 504 379 q 504 350 489 262 z"},"z":{"x_min":0,"x_max":432,"ha":432,"o":"m 431 399 l 171 104 l 388 104 l 371 0 l -21 0 l -5 96 l 254 392 l 51 392 l 69 497 l 447 497 z"},"B":{"x_min":0,"x_max":655,"ha":655,"o":"m 137 667 l 424 667 q 510 667 552 646 q 595 625 617 586 q 639 547 639 500 q 639 373 489 343 q 610 309 610 197 q 610 117 554 59 q 498 0 356 0 l 25 0 z m 271 555 l 246 399 l 351 399 q 404 399 425 405 q 446 410 462 429 q 478 448 478 480 q 478 555 377 555 z m 227 286 l 199 119 l 334 119 q 392 119 420 144 q 449 168 449 204 q 449 248 421 267 q 393 286 328 286 z"},"K":{"x_min":0,"x_max":625,"ha":625,"o":"m 654 667 l 443 427 l 572 0 l 415 0 l 330 310 l 199 160 l 172 0 l 25 0 l 137 667 l 284 667 l 231 353 l 252 380 q 270 403 284 419 l 498 667 z"},"R":{"x_min":0,"x_max":657,"ha":657,"o":"m 219 265 l 175 0 l 25 0 l 137 667 l 383 667 q 477 667 527 646 q 578 626 607 577 q 636 528 636 474 q 636 416 601 363 q 566 310 486 289 l 569 0 l 414 0 l 343 265 z m 264 550 l 236 381 l 334 381 q 392 381 419 388 q 446 396 463 418 q 480 439 480 471 q 480 513 454 531 q 427 550 365 550 z"},"T":{"x_min":0,"x_max":489,"ha":489,"o":"m 538 540 l 370 540 l 280 0 l 126 0 l 217 540 l 49 540 l 70 667 l 560 667 z"},"P":{"x_min":0,"x_max":600,"ha":600,"o":"m 221 250 l 179 0 l 25 0 l 137 667 l 375 667 q 454 667 501 652 q 548 637 583 590 q 617 543 617 475 q 617 424 596 374 q 575 324 535 295 q 496 267 463 259 q 430 250 362 250 z m 271 548 l 240 367 l 355 367 q 414 367 441 395 q 469 423 469 464 q 469 495 447 521 q 425 548 350 548 z"},"|":{"x_min":0,"x_max":500,"ha":500,"o":"m 196 667 l 334 667 l 334 -167 l 196 -167 z"},"t":{"x_min":0,"x_max":359,"ha":359,"o":"m 361 383 l 243 383 l 210 184 q 205 153 205 141 q 205 101 269 101 q 300 101 321 105 l 302 -4 q 251 -12 204 -12 q 56 -12 56 108 q 56 141 71 220 l 104 383 l 28 383 l 47 497 l 130 497 l 164 633 l 289 637 l 266 497 l 380 497 z"},"M":{"x_min":0,"x_max":863,"ha":863,"o":"m 867 667 l 755 0 l 600 0 l 693 558 l 424 0 l 335 0 l 246 563 l 151 0 l 25 0 l 137 667 l 371 667 l 430 259 l 625 667 z"},"g":{"x_min":0,"x_max":513,"ha":513,"o":"m 514 513 q 493 517 482 517 q 426 517 419 474 q 489 433 489 359 q 489 285 429 241 q 369 197 274 197 q 244 197 190 206 q 150 190 150 162 q 150 145 165 136 q 181 127 223 126 q 347 125 390 112 q 432 99 457 67 q 481 34 481 -8 q 481 -75 422 -125 q 364 -175 201 -175 q 66 -175 14 -146 q -38 -118 -38 -67 q -38 -1 55 34 q 12 66 12 115 q 12 148 30 176 q 47 203 118 238 q 62 273 62 342 q 62 418 123 463 q 185 507 274 507 q 327 507 361 497 q 379 613 480 613 q 494 613 520 611 z m 285 426 q 240 426 219 401 q 197 376 197 348 q 197 274 269 274 q 312 274 334 300 q 356 326 356 362 q 356 426 285 426 z m 220 -93 q 347 -93 347 -41 q 347 -26 333 -15 q 318 -4 264 -3 q 191 -2 152 0 q 140 1 135 1 q 119 1 102 -13 q 84 -27 84 -43 q 84 -69 125 -81 q 165 -93 220 -93 z"},"j":{"x_min":0,"x_max":268,"ha":268,"o":"m 256 533 l 108 533 l 132 675 l 280 675 z m 250 497 l 177 62 q 159 -44 143 -88 q 127 -132 90 -157 q 52 -182 -11 -182 q -43 -182 -99 -175 l -83 -61 q -66 -63 -53 -63 q -22 -63 -6 -52 q 10 -40 16 -11 q 21 18 33 87 l 102 497 z"},"i":{"x_min":0,"x_max":269,"ha":269,"o":"m 281 675 l 257 534 l 108 534 l 131 675 z m 251 497 l 168 0 l 19 0 l 102 497 z"},"y":{"x_min":0,"x_max":450,"ha":450,"o":"m 488 497 l 266 28 q 221 -66 198 -100 q 174 -134 137 -154 q 99 -173 31 -173 q -3 -173 -21 -171 l -13 -60 q 29 -65 48 -65 q 90 -65 112 -50 q 133 -34 146 6 l 32 497 l 182 497 l 242 195 l 375 497 z"},"@":{"x_min":0,"x_max":773,"ha":773,"o":"m 582 501 l 545 281 q 541 253 541 243 q 541 228 562 228 q 603 228 635 272 q 667 317 667 379 q 667 474 596 540 q 525 606 419 606 q 307 606 229 527 q 152 447 152 330 q 152 223 222 142 q 292 61 437 61 q 526 61 626 104 l 655 23 q 557 -24 425 -24 q 244 -24 149 83 q 54 190 54 326 q 54 479 161 583 q 269 687 420 687 q 509 687 588 648 q 667 609 711 537 q 756 464 756 382 q 756 282 696 210 q 636 138 553 138 q 497 138 465 181 q 425 136 373 136 q 314 136 276 184 q 237 232 237 308 q 237 395 288 452 q 338 509 407 509 q 449 509 483 480 l 489 501 z m 383 230 q 417 230 444 266 q 470 301 470 345 q 470 379 450 397 q 431 415 408 415 q 377 415 356 385 q 335 355 335 308 q 335 274 348 252 q 360 230 383 230 z"},".":{"x_min":0,"x_max":257,"ha":257,"o":"m 163 0 l 11 0 l 37 151 l 188 151 z"},"p":{"x_min":0,"x_max":540,"ha":540,"o":"m 133 -173 l -10 -173 l 102 497 l 232 497 l 218 407 q 272 503 355 503 q 428 503 469 447 q 510 391 510 299 q 510 174 451 82 q 392 -10 301 -10 q 256 -10 221 13 q 186 37 174 73 z m 261 88 q 315 88 339 169 q 363 250 363 323 q 363 355 347 379 q 332 403 300 403 q 270 403 244 377 q 218 350 206 276 q 193 203 193 177 q 193 133 213 111 q 233 88 261 88 z"},"X":{"x_min":0,"x_max":596,"ha":596,"o":"m 631 667 l 396 356 l 558 0 l 391 0 l 283 251 l 108 0 l -45 0 l 224 356 l 82 667 l 247 667 l 339 458 l 481 667 z"},"*":{"x_min":0,"x_max":586,"ha":586,"o":"m 306 525 l 324 670 l 401 658 l 373 514 l 517 541 l 528 463 l 382 446 l 453 317 l 383 282 l 322 416 l 221 309 l 166 365 l 274 464 l 141 527 l 177 597 z"},"Y":{"x_min":0,"x_max":530,"ha":530,"o":"m 624 667 l 356 280 l 310 0 l 156 0 l 203 280 l 37 667 l 203 667 l 305 403 l 478 667 z"},"c":{"x_min":0,"x_max":507,"ha":507,"o":"m 476 175 q 413 -10 247 -10 q 144 -10 87 54 q 31 119 31 219 q 31 331 101 418 q 171 506 289 506 q 395 506 445 448 q 494 390 494 324 l 494 313 l 365 306 q 365 355 343 376 q 320 397 292 397 q 243 397 215 342 q 186 286 186 195 q 186 104 262 104 q 329 104 355 191 z"},"!":{"x_min":0,"x_max":288,"ha":288,"o":"m 170 201 l 93 201 l 118 667 l 289 667 z m 202 148 l 177 0 l 29 0 l 54 148 z"},"/":{"x_min":0,"x_max":442,"ha":442,"o":"m -23 -173 l -115 -173 l 392 667 l 482 667 z"},"[":{"x_min":0,"x_max":293,"ha":293,"o":"m 308 605 l 199 605 l 79 -113 l 187 -113 l 177 -173 l -21 -173 l 119 667 l 318 667 z"},"6":{"x_min":0,"x_max":586,"ha":586,"o":"m 581 487 l 448 476 q 437 569 356 569 q 234 569 208 338 q 259 426 354 426 q 440 426 499 367 q 557 307 557 221 q 557 130 492 60 q 427 -11 312 -11 q 196 -11 125 66 q 54 144 54 280 q 54 441 135 561 q 216 680 358 680 q 451 680 510 628 q 570 576 581 487 z m 310 104 q 353 104 382 135 q 411 165 411 212 q 411 258 383 287 q 354 315 312 315 q 269 315 238 284 q 207 253 207 206 q 207 157 239 130 q 271 104 310 104 z"},"r":{"x_min":0,"x_max":352,"ha":352,"o":"m 355 360 q 315 360 289 348 q 263 336 241 304 q 220 273 210 234 q 200 195 186 107 l 168 0 l 19 0 l 102 497 l 240 497 l 221 382 q 243 433 265 460 q 287 486 310 495 q 333 503 370 503 z"},"2":{"x_min":0,"x_max":586,"ha":586,"o":"m 524 126 l 506 0 l 11 0 l 30 145 q 312 316 364 369 q 417 422 417 470 q 417 508 390 531 q 364 554 327 554 q 236 554 208 432 l 71 464 q 97 565 167 624 q 238 683 333 683 q 438 683 506 622 q 575 562 575 471 q 575 401 536 348 q 497 295 419 249 q 342 204 188 126 z"},"{":{"x_min":0,"x_max":293,"ha":293,"o":"m 157 247 q 201 220 201 163 q 201 152 197 129 l 167 -49 q 163 -80 163 -88 q 163 -104 171 -109 q 179 -114 199 -114 l 216 -113 l 207 -171 q 190 -171 161 -173 l 140 -173 q 88 -173 66 -152 q 43 -131 43 -83 q 43 -66 48 -39 l 79 144 q 82 162 82 172 q 82 217 37 224 l 45 278 q 102 286 113 349 l 144 533 q 155 602 185 634 q 215 667 281 667 q 285 667 301 666 q 324 665 346 665 l 336 606 l 322 607 q 292 607 283 597 q 274 587 267 542 l 237 364 q 229 318 213 293 q 196 268 157 247 z"},"9":{"x_min":0,"x_max":586,"ha":586,"o":"m 25 146 l 161 176 q 179 106 250 106 q 314 106 353 164 q 391 222 414 349 q 362 249 261 249 q 182 249 121 303 q 60 357 60 449 q 60 540 128 609 q 197 679 306 679 q 429 679 495 600 q 561 521 561 399 q 561 245 476 118 q 391 -9 247 -9 q 73 -9 25 146 z m 306 361 q 350 361 380 392 q 411 423 411 467 q 411 509 382 538 q 354 566 313 566 q 269 566 238 535 q 208 504 208 460 q 208 418 235 390 q 263 361 306 361 z"}," ":{"x_min":0,"x_max":250,"ha":250,"o":""},"I":{"x_min":0,"x_max":287,"ha":287,"o":"m 290 667 l 179 0 l 25 0 l 137 667 z"},"H":{"x_min":0,"x_max":642,"ha":642,"o":"m 646 667 l 534 0 l 387 0 l 434 279 l 219 279 l 172 0 l 25 0 l 137 667 l 284 667 l 240 405 l 455 405 l 499 667 z"},"4":{"x_min":0,"x_max":586,"ha":586,"o":"m 567 272 l 547 153 l 447 153 l 421 0 l 271 0 l 297 153 l 19 153 l 38 276 l 357 675 l 535 675 l 467 272 z m 321 267 l 366 537 l 146 267 z"},"~":{"x_min":0,"x_max":586,"ha":586,"o":"m 139 231 l 64 282 q 96 363 131 393 q 167 423 217 423 q 250 423 321 396 q 384 374 406 374 q 448 374 475 425 l 551 378 q 494 242 392 242 q 367 242 292 269 q 227 292 209 292 q 166 292 139 231 z"},"D":{"x_min":0,"x_max":653,"ha":653,"o":"m 25 0 l 137 667 l 333 667 q 437 667 494 634 q 551 602 590 530 q 628 458 628 362 q 628 272 596 195 q 563 117 509 70 q 455 23 400 11 q 345 -1 258 -1 z m 192 119 l 272 119 q 393 119 433 199 q 472 280 472 373 q 472 549 332 549 l 264 549 z"},"^":{"x_min":0,"x_max":500,"ha":500,"o":"m 159 334 l 19 334 l 176 671 l 352 671 l 510 334 l 370 334 l 264 564 z"},"0":{"x_min":0,"x_max":586,"ha":586,"o":"m 285 -11 q 169 -11 107 73 q 45 158 45 283 q 45 431 122 557 q 200 682 336 682 q 445 682 508 604 q 571 525 571 395 q 571 234 494 111 q 417 -11 285 -11 z m 290 103 q 365 103 393 221 q 420 339 420 428 q 420 513 395 541 q 369 569 331 569 q 288 569 262 536 q 236 503 218 418 q 199 333 199 243 q 199 165 222 134 q 246 103 290 103 z"},"F":{"x_min":0,"x_max":532,"ha":532,"o":"m 589 667 l 568 540 l 269 540 l 244 391 l 498 391 l 477 265 l 229 265 l 185 0 l 25 0 l 137 667 z"},"`":{"x_min":0,"x_max":500,"ha":500,"o":"m 386 567 l 196 663 l 241 739 l 417 621 z"},"k":{"x_min":0,"x_max":541,"ha":541,"o":"m 573 497 l 400 328 l 506 0 l 356 0 l 287 228 l 184 130 l 162 0 l 19 0 l 130 667 l 271 667 l 207 278 l 419 497 z"},"u":{"x_min":0,"x_max":536,"ha":536,"o":"m 518 497 l 435 0 l 304 0 l 319 90 q 262 -11 168 -11 q 114 -11 78 21 q 42 53 42 115 q 42 141 52 199 l 102 497 l 246 497 l 194 190 q 188 157 188 146 q 188 103 230 103 q 255 103 277 120 q 299 137 312 166 q 324 194 335 258 l 375 497 z"},"]":{"x_min":0,"x_max":293,"ha":293,"o":"m -15 -112 l 95 -112 l 215 606 l 105 606 l 116 667 l 315 667 l 174 -173 l -25 -173 z"},"U":{"x_min":0,"x_max":643,"ha":643,"o":"m 657 667 l 595 294 q 577 186 565 148 q 553 110 521 73 q 490 37 435 16 q 380 -6 304 -6 q 182 -6 119 48 q 57 102 57 187 q 57 216 62 253 l 132 667 l 296 667 l 231 277 q 224 236 224 206 q 224 158 257 139 q 290 121 330 121 q 376 121 405 139 q 433 157 441 182 q 448 207 466 312 l 525 667 z"},"o":{"x_min":0,"x_max":534,"ha":534,"o":"m 287 509 q 383 509 443 445 q 503 380 503 276 q 503 158 430 74 q 358 -10 249 -10 q 154 -10 93 53 q 31 117 31 213 q 31 341 102 425 q 173 509 287 509 z m 286 413 q 225 413 202 336 q 178 260 178 180 q 178 85 252 85 q 313 85 335 168 q 358 251 358 318 q 358 413 286 413 z"},"N":{"x_min":0,"x_max":652,"ha":652,"o":"m 656 667 l 544 0 l 419 0 l 225 482 q 223 434 193 254 l 151 0 l 25 0 l 137 667 l 306 667 l 466 260 q 468 280 496 456 l 531 667 z"},"+":{"x_min":0,"x_max":586,"ha":586,"o":"m 555 390 l 555 283 l 361 283 l 361 83 l 255 83 l 255 283 l 61 283 l 61 390 l 255 390 l 255 591 l 361 591 l 361 390 z"},"G":{"x_min":0,"x_max":658,"ha":658,"o":"m 620 357 l 559 -5 l 497 -5 l 479 85 q 409 -9 295 -9 q 191 -9 118 66 q 46 140 46 275 q 46 447 138 564 q 230 680 375 680 q 481 680 547 623 q 613 565 631 461 l 487 438 q 470 557 375 557 q 316 557 277 511 q 239 465 221 388 q 203 311 203 260 q 203 199 232 158 q 261 117 327 117 q 423 117 457 237 l 319 237 l 339 357 z"},"q":{"x_min":0,"x_max":542,"ha":542,"o":"m 411 -173 l 268 -173 l 307 63 q 264 -12 185 -12 q 112 -12 70 44 q 28 100 28 187 q 28 308 90 406 q 153 505 264 505 q 359 505 398 417 q 428 449 446 497 l 526 497 q 520 478 491 305 z m 234 80 q 298 80 323 175 q 347 271 347 335 q 347 375 328 394 q 309 414 281 414 q 223 414 198 322 q 172 230 172 171 q 172 80 234 80 z"},"d":{"x_min":0,"x_max":540,"ha":540,"o":"m 439 0 l 304 0 l 317 77 q 265 -11 187 -11 q 111 -11 70 46 q 29 103 29 195 q 29 309 87 408 q 145 507 247 507 q 342 507 365 415 l 407 667 l 550 667 z m 239 92 q 270 92 296 120 q 323 148 335 223 q 347 298 347 319 q 347 359 327 383 q 307 406 279 406 q 227 406 202 331 q 178 256 178 177 q 178 132 196 112 q 215 92 239 92 z"},"1":{"x_min":0,"x_max":586,"ha":586,"o":"m 558 127 l 536 0 l 36 0 l 58 127 l 233 127 l 296 507 q 249 458 145 458 q 135 458 113 459 l 134 583 q 293 583 360 683 l 473 683 l 379 127 z"},"5":{"x_min":0,"x_max":586,"ha":586,"o":"m 585 667 l 550 535 l 256 535 l 219 382 q 268 438 349 438 q 435 438 496 381 q 557 323 557 234 q 557 130 479 60 q 402 -11 287 -11 q 187 -11 115 40 q 42 90 25 175 l 173 198 q 194 113 288 113 q 339 113 370 146 q 400 178 400 226 q 400 271 372 299 q 344 326 300 326 q 240 326 200 272 l 74 315 l 158 667 z"}}}
